<?xml version="1.0" standalone="no"?>
<!DOCTYPE svg PUBLIC "-//W3C//DTD SVG 20010904//EN"
 "http://www.w3.org/TR/2001/REC-SVG-20010904/DTD/svg10.dtd">
<svg version="1.0" xmlns="http://www.w3.org/2000/svg"
 width="317.000000pt" height="317.000000pt" viewBox="0 0 317.000000 317.000000"
 preserveAspectRatio="xMidYMid meet">
<metadata>
Created by potrace 1.14, written by Peter Selinger 2001-2017
</metadata>
<g transform="translate(0.000000,317.000000) scale(0.100000,-0.100000)"
fill="#000000" stroke="none">
<path d="M748 3095 c-2 -2 -20 -6 -41 -9 -198 -31 -406 -179 -517 -366 -43
-70 -86 -183 -98 -255 -12 -69 -8 -267 6 -315 51 -168 117 -285 219 -383 57
-56 124 -107 139 -107 4 0 15 -6 23 -13 25 -21 138 -66 147 -59 4 4 4 1 0 -5
-4 -7 -13 -13 -20 -13 -18 0 -133 -57 -185 -92 -72 -48 -183 -167 -229 -244
-47 -78 -78 -157 -98 -249 -17 -79 -12 -261 10 -344 76 -282 300 -499 586
-564 65 -16 264 -17 325 -3 104 24 256 95 324 151 94 79 180 193 228 301 l27
63 41 -87 c34 -72 101 -169 149 -218 80 -79 209 -155 331 -194 90 -29 277 -36
376 -15 417 90 684 492 604 911 -47 244 -230 470 -460 565 -30 12 -55 25 -55
29 0 3 28 18 63 33 133 58 250 154 329 270 36 53 89 156 94 182 1 6 11 43 22
82 31 108 25 297 -12 407 -149 443 -616 660 -1041 485 -182 -75 -344 -236
-415 -411 l-23 -57 -43 88 c-111 227 -301 374 -549 426 -64 13 -246 20 -257
10z m895 -1120 c79 -164 235 -306 405 -371 l55 -21 -94 -45 c-179 -85 -310
-218 -384 -391 -27 -61 -31 -66 -39 -45 -83 206 -212 345 -406 437 -65 31 -89
46 -75 49 11 2 25 8 30 12 6 4 25 12 43 18 54 18 170 101 234 166 65 66 136
174 164 250 17 46 18 48 28 25 5 -13 22 -51 39 -84z"/>
</g>
</svg>
