<?xml version="1.0" standalone="no"?>
<!DOCTYPE svg PUBLIC "-//W3C//DTD SVG 20010904//EN"
 "http://www.w3.org/TR/2001/REC-SVG-20010904/DTD/svg10.dtd">
<svg version="1.0" xmlns="http://www.w3.org/2000/svg"
 width="507.000000pt" height="507.000000pt" viewBox="0 0 507.000000 507.000000"
 preserveAspectRatio="xMidYMid meet">
<metadata>
Created by potrace 1.14, written by Peter Selinger 2001-2017
</metadata>
<g transform="translate(0.000000,507.000000) scale(0.100000,-0.100000)"
fill="#000000" stroke="none">
<path d="M1030 3581 c0 -4 28 -22 61 -41 112 -64 224 -192 280 -321 l24 -56
31 116 c17 64 42 158 56 209 14 50 23 92 19 93 -36 4 -471 4 -471 0z"/>
<path d="M1607 3578 c-7 -4 -12 -11 -13 -15 -1 -11 -12 -52 -40 -154 -14 -47
-27 -95 -29 -105 -2 -10 -11 -44 -19 -74 -9 -30 -16 -58 -16 -62 0 -5 56 -8
124 -8 94 0 126 3 135 14 16 19 60 182 52 193 -3 6 -13 13 -21 16 -12 4 -12 6
2 6 24 1 44 35 63 110 11 43 13 67 6 74 -11 11 -227 16 -244 5z m133 -97 c0
-35 -11 -50 -47 -62 -19 -6 -36 -9 -38 -7 -2 2 2 22 8 46 10 39 14 42 44 42
26 0 33 -4 33 -19z m-45 -178 c-8 -47 -14 -53 -55 -58 l-32 -4 7 37 c4 20 8
38 8 38 5 3 63 23 71 23 4 1 5 -16 1 -36z"/>
<path d="M1966 3580 c-25 -4 -31 -12 -41 -50 -7 -25 -29 -108 -49 -185 -50
-186 -48 -174 -23 -180 12 -3 69 -5 127 -3 101 3 105 4 117 28 9 20 59 193 77
270 2 8 9 35 16 59 14 55 9 67 -26 65 -16 -1 -34 -3 -40 -3 -15 -1 -19 -13
-59 -161 -46 -175 -46 -175 -87 -176 l-34 -1 43 155 c24 86 43 163 43 172 0
16 -15 19 -64 10z"/>
<path d="M2287 3578 c-6 -3 -12 -12 -13 -20 -1 -7 -25 -97 -53 -200 -28 -104
-51 -190 -51 -193 0 -3 22 -5 48 -5 l49 0 12 53 c8 36 21 63 41 82 17 16 32
26 35 23 11 -10 14 -51 6 -67 -5 -9 -11 -33 -15 -54 l-7 -38 47 3 47 3 19 65
c17 60 17 69 4 113 l-15 48 39 40 c22 23 40 45 40 50 0 16 1 18 15 59 l14 41
-51 -3 c-52 -3 -52 -3 -63 -43 -5 -22 -17 -49 -25 -60 -21 -27 -95 -93 -86
-77 12 21 53 182 47 183 -32 4 -75 3 -84 -3z"/>
<path d="M2650 3580 c-32 -5 -36 -9 -52 -60 -28 -91 -26 -100 47 -171 60 -58
64 -64 51 -83 -9 -14 -25 -21 -50 -22 -26 -1 -34 2 -27 10 4 6 12 21 15 34 7
21 5 22 -42 22 l-50 0 -16 -67 c-10 -38 -13 -70 -8 -75 5 -5 62 -7 128 -6
l119 3 18 55 c32 94 31 98 -42 173 -55 56 -64 70 -55 85 13 19 52 28 66 14 5
-5 5 -19 -1 -34 -10 -26 -9 -26 40 -25 l49 0 16 56 c8 31 17 61 19 68 2 7 -1
15 -6 19 -13 8 -171 11 -219 4z"/>
<path d="M2964 3580 c-13 -5 -30 -53 -65 -186 -26 -98 -49 -190 -51 -204 l-3
-25 122 -3 c118 -3 123 -2 137 20 8 13 17 34 19 48 3 14 23 93 46 175 23 83
41 156 41 162 0 15 -68 22 -85 9 -8 -6 -16 -22 -19 -36 -12 -58 -68 -265 -75
-279 -9 -16 -58 -24 -66 -11 -5 8 10 69 57 242 l24 86 -32 4 c-18 2 -40 1 -50
-2z"/>
<path d="M3284 3534 c-8 -28 -16 -60 -19 -70 -2 -11 -21 -83 -43 -161 l-39
-143 351 -1 c426 0 439 -1 460 -18 22 -18 20 -34 -10 -149 -14 -53 -28 -104
-30 -112 -2 -8 -23 -89 -48 -180 -24 -91 -78 -291 -120 -446 -41 -155 -80
-292 -86 -306 -25 -54 -51 -59 -289 -61 -209 -2 -250 3 -151 18 25 4 52 8 60
9 18 3 19 5 131 446 50 195 106 415 125 489 19 73 34 136 34 140 0 3 -108 6
-240 6 l-240 0 -10 -30 c-5 -16 -88 -336 -185 -710 -97 -374 -180 -693 -185
-710 -4 -16 -11 -41 -14 -55 l-5 -25 607 0 607 1 46 22 c70 34 103 88 139 227
10 39 57 216 105 395 128 474 157 583 160 601 2 9 12 47 23 85 61 210 172 645
172 672 0 48 -19 78 -60 97 -33 15 -97 17 -634 18 l-597 2 -15 -51z"/>
<path d="M890 2960 c-5 -19 -25 -96 -44 -170 -48 -184 -91 -349 -132 -510 -19
-74 -56 -214 -81 -310 -25 -96 -63 -242 -85 -325 -21 -82 -41 -158 -44 -167
-5 -16 13 -17 242 -15 l248 2 28 105 c15 58 30 114 32 125 2 11 27 110 56 220
46 179 216 845 226 884 34 137 33 127 13 160 -10 17 -24 32 -31 32 -7 1 -104
2 -216 3 l-202 1 -10 -35z"/>
<path d="M1455 2987 c-2 -7 -25 -93 -50 -192 -26 -99 -57 -220 -70 -270 -23
-87 -121 -463 -170 -650 -13 -49 -40 -155 -60 -235 -20 -80 -39 -153 -41 -163
-5 -16 9 -17 241 -15 l247 3 39 155 c22 85 83 322 135 525 52 204 97 379 99
391 8 36 85 328 88 330 1 1 19 9 41 18 27 11 37 12 34 3 -6 -14 -33 -117 -152
-577 -47 -179 -96 -370 -111 -425 -14 -55 -28 -107 -30 -115 -2 -8 -19 -77
-39 -152 -20 -75 -36 -141 -36 -147 0 -6 86 -10 245 -11 135 0 245 1 245 3 0
2 32 130 71 283 39 153 73 286 74 294 2 8 18 69 35 135 152 589 168 651 169
672 1 7 19 22 41 33 42 21 54 25 47 13 -3 -5 -28 -96 -55 -203 -28 -107 -63
-240 -77 -295 -15 -55 -28 -107 -30 -115 -2 -8 -29 -112 -60 -230 -31 -118
-58 -222 -60 -230 -2 -8 -17 -69 -35 -135 -17 -66 -37 -143 -44 -172 l-13 -52
243 -1 c133 0 245 3 247 8 6 8 96 353 103 392 3 14 9 36 14 50 5 14 41 153 81
310 82 329 70 283 109 435 66 259 68 268 60 291 -21 55 11 53 -812 52 -566 0
-760 -3 -763 -11z"/>
</g>
</svg>
